<?xml version="1.0" standalone="no"?>
<!DOCTYPE svg PUBLIC "-//W3C//DTD SVG 20010904//EN"
 "http://www.w3.org/TR/2001/REC-SVG-20010904/DTD/svg10.dtd">
<svg version="1.0" xmlns="http://www.w3.org/2000/svg"
 width="434" height="127" viewBox="0 0 434 127"
 preserveAspectRatio="xMidYMid meet">

<path d="M2713 2654 c-54 -20 -90 -63 -98 -117 -4 -24 -5 -118 -3 -208 3 -188
9 -203 81 -241 37 -20 56 -23 172 -23 114 0 135 3 175 22 76 38 80 52 80 278
0 224 -4 241 -73 277 -36 19 -60 23 -167 25 -93 2 -136 -2 -167 -13z m215
-156 c17 -17 17 -249 0 -266 -16 -16 -100 -16 -116 0 -13 13 -18 232 -6 262 8
20 103 23 122 4z" fill="white"/>
<path d="M3327 2655 c-51 -18 -85 -51 -98 -94 -6 -22 -9 -109 -7 -218 3 -205
8 -220 84 -258 33 -17 59 -20 169 -20 149 0 192 14 233 75 23 34 23 39 20 238
l-3 204 -37 33 c-20 18 -53 38 -75 44 -54 15 -240 13 -286 -4z m213 -164 c15
-29 13 -233 -3 -255 -10 -13 -24 -17 -67 -14 l-55 3 -3 129 c-1 72 0 136 2
143 4 8 24 13 60 13 44 0 57 -4 66 -19z"  fill="white"/>
<path d="M373 2639 c-56 -27 -73 -66 -73 -163 0 -86 17 -138 52 -157 12 -7 66
-20 118 -29 85 -14 95 -18 98 -38 3 -22 1 -22 -110 -22 -164 0 -159 2 -156
-84 l3 -71 175 0 c191 0 215 5 254 58 16 22 22 47 24 111 6 143 -30 185 -173
201 -82 9 -95 13 -95 35 0 25 20 29 140 33 l95 2 0 70 0 70 -155 3 c-140 2
-159 0 -197 -19z"  fill="white"/>
<path d="M952 2647 c-6 -7 -33 -67 -59 -133 l-47 -119 -1 -160 0 -160 79 -3
c57 -2 82 1 87 10 5 7 9 39 9 71 l0 57 70 0 70 0 0 -57 c0 -32 4 -64 9 -71 5
-9 31 -12 92 -10 l84 3 0 150 0 150 -49 130 c-27 72 -54 136 -59 143 -14 18
-270 17 -285 -1z m179 -202 c29 -83 28 -85 -41 -85 -73 0 -72 -3 -25 128 3 7
15 12 27 10 16 -2 26 -16 39 -53z"  fill="white"/>
<path d="M1455 2648 c-3 -7 -4 -139 -3 -293 l3 -280 235 0 235 0 0 155 0 155
-85 0 -85 0 -3 -77 -3 -78 -54 0 -55 0 -2 213 -3 212 -88 3 c-65 2 -89 -1 -92
-10z"  fill="white"/>
<path d="M2017 2654 c-4 -4 -7 -70 -7 -147 l0 -139 57 -144 c44 -112 61 -146
77 -150 12 -2 75 -3 141 -2 l120 3 57 140 57 140 -2 150 -2 150 -90 0 -90 0
-6 -150 c-4 -108 -10 -164 -24 -200 -23 -63 -31 -73 -49 -55 -33 36 -50 115
-55 260 l-6 145 -85 3 c-47 1 -89 0 -93 -4z"  fill="white"/>
<path d="M3834 2647 c-3 -8 -4 -120 -2 -250 3 -220 4 -237 24 -264 40 -55 85
-68 229 -68 120 0 133 2 175 25 77 43 81 58 78 330 l-3 235 -84 3 c-61 2 -87
-1 -92 -10 -5 -7 -9 -104 -9 -214 0 -224 3 -214 -70 -214 -20 0 -43 6 -49 13
-7 9 -12 88 -13 218 l-3 204 -88 3 c-67 2 -89 0 -93 -11z"  fill="white"/>
<path d="M4464 2647 c-2 -7 -1 -89 3 -182 l8 -170 91 -3 91 -3 7 77 c3 42 6
126 6 186 l0 108 -100 0 c-72 0 -102 -4 -106 -13z"  fill="white"/>
<path d="M4472 2228 c-13 -13 -16 -126 -4 -146 6 -9 34 -12 103 -10 l94 3 0
80 0 80 -90 3 c-62 2 -94 -1 -103 -10z"  fill="white"/>
</svg>
